<?xml version="1.0" encoding="utf-8"?>
<!-- Generator: Adobe Illustrator 26.1.0, SVG Export Plug-In . SVG Version: 6.00 Build 0)  -->
<svg version="1.1" id="Layer_1" xmlns="http://www.w3.org/2000/svg" xmlns:xlink="http://www.w3.org/1999/xlink" x="0px" y="0px"
	 viewBox="0 0 256 256" style="enable-background:new 0 0 256 256;" xml:space="preserve">
<g>
	<path d="M91.14,83.32c9.91-0.7,17.29,4.68,22.94,13.39c18.49,28.56,38.73,55.79,63.97,78.8c9.39,8.56,19.43,16.78,30.31,23.26
		c15.94,9.5,18.72,21.26,9.79,39.59c-6.45,13.24-24.45,19-38.05,10.92c-15.02-8.93-29.6-19.06-42.84-30.45
		c-28.97-24.9-53.15-53.94-70.38-88.39c-3.91-7.82-5.3-15.84-3.89-24.34C65.58,90.46,74.37,83.18,91.14,83.32z"/>
	<path d="M138.1,251.06c-7.12,0-12.72,0-18.32,0c-19.06,0-38.13,0.09-57.19-0.03c-17.15-0.11-30.23-13.36-29.75-29.87
		c0.48-16.73,13.87-29.03,31.07-28.47c18.18,0.6,33.23,7.89,44.84,21.84C118.37,226.1,127.62,237.98,138.1,251.06z"/>
	<path d="M129.44,67.31c-17.86,0.14-32.52-14.42-32.43-32.2C97.09,17.41,111.33,3.07,128.9,3c17.95-0.07,32.51,14.37,32.45,32.19
		C161.29,52.82,147.03,67.17,129.44,67.31z"/>
</g>
</svg>
